<svg width="43" height="42" viewBox="0 0 43 42" fill="none" xmlns="http://www.w3.org/2000/svg">
<path d="M42.125 36.0144C42.125 39.1217 39.5606 41.6394 36.3958 41.6394H6.60417C3.44052 41.6394 0.875 39.1217 0.875 36.0144V6.7644C0.875 3.65715 3.44052 1.1394 6.60417 1.1394H36.3958C39.5606 1.1394 42.125 3.65715 42.125 6.7644V36.0144Z" fill="#1976D2"/>
<path d="M35.1778 14.6855C35.2305 14.5157 35.2557 14.3582 35.2489 14.2175C35.2317 13.8103 34.9464 13.5144 34.2749 13.5144H31.2751C30.5177 13.5144 30.1682 13.9644 29.9643 14.4155C29.9643 14.4155 28.0943 18.1944 25.939 20.6863C25.24 21.4074 24.8848 21.3894 24.5067 21.3894C24.3039 21.3894 23.7917 21.1487 23.7917 20.4883V14.6552C23.7917 13.8744 23.5934 13.5144 22.9529 13.5144H17.6259C17.1596 13.5144 16.9167 13.8744 16.9167 14.2355C16.9167 14.9859 17.9456 15.1659 18.0625 17.2685V21.3444C18.0625 22.3344 17.8872 22.5144 17.5091 22.5144C16.4893 22.5144 14.4818 19.1394 13.1377 14.7159C12.8467 13.8452 12.5556 13.5144 11.7982 13.5144H8.76979C7.89552 13.5144 7.75 13.9352 7.75 14.3852C7.75 15.1963 8.4375 19.5815 12.1901 24.6238C14.9115 28.28 18.4968 30.3894 21.6707 30.3894C23.5934 30.3894 23.7905 29.909 23.7905 29.1587V25.8152C23.7917 24.914 24.0014 24.7644 24.6132 24.7644C25.0498 24.7644 25.9401 25.0457 27.6589 27.0144C29.6411 29.2847 30.0009 30.3894 31.1376 30.3894H34.1374C34.8341 30.3894 35.234 30.1025 35.25 29.5457C35.2534 29.4039 35.2328 29.2453 35.1858 29.0687C34.9635 28.4207 33.9437 26.8367 32.6719 25.3269C31.9672 24.491 31.2717 23.663 30.952 23.213C30.7377 22.9194 30.6564 22.7124 30.6667 22.5144C30.677 22.3063 30.787 22.1083 30.952 21.8315C30.9222 21.8315 34.7997 16.4867 35.1778 14.6855Z" fill="white"/>
</svg>
